<svg width="104" height="79" viewBox="0 0 104 79" fill="none" xmlns="http://www.w3.org/2000/svg">
<rect x="0.524774" y="0.499386" width="89" height="67.0836" rx="4.5" transform="matrix(1 0 0.0495471 0.998772 9.3317 9.00061)" fill="#FF4E37" stroke="black"/>
<path d="M94.1075 12.3767C94.2154 11.7822 95.0812 11.7701 95.1016 12.3627L97.3181 76.804C97.3279 77.097 97.0788 77.3566 96.7827 77.3626L89.8968 77.5008L85.9059 77.5012L85.9068 77.5012L82.832 77.4615C82.5408 77.4577 82.3364 77.2065 82.389 76.9166L94.1075 12.3767Z" fill="#FFE2C8" stroke="black"/>
<path d="M4.48315 67.4971H86.3445C86.6206 67.4971 86.8205 67.7197 86.7908 67.9942L85.8251 76.9423C85.7955 77.2168 85.5476 77.4394 85.2714 77.4394H3.4101C3.13396 77.4394 2.93412 77.2168 2.96375 76.9423L3.9295 67.9942C3.95913 67.7197 4.20701 67.4971 4.48315 67.4971Z" fill="#FFE2C8" stroke="black"/>
<rect x="0.454597" y="0.497934" width="89" height="69" rx="4.5" transform="matrix(1 0 -0.0908064 0.995869 6.40166 6.00206)" fill="#FF4E37" stroke="black"/>
<path d="M21.3564 32H39.3564L38.2668 43.9504H20.2668L21.3564 32Z" fill="black"/>
<path d="M52.3564 32H70.3564L69.2668 43.9504H51.2668L52.3564 32Z" fill="black"/>
<rect width="3" height="2" transform="matrix(1 0 -0.0908064 0.995869 66.3564 34)" fill="white"/>
<rect width="3" height="2" transform="matrix(1 0 -0.0908064 0.995869 35.3564 34)" fill="white"/>
<path d="M73.2168 0C74.8484 7.65753e-05 76.2356 2.50452 76.75 6H75.7393C75.5606 4.8534 75.2845 3.83981 74.9434 3.02051C74.6344 2.27858 74.292 1.74357 73.9629 1.40918C73.6372 1.07836 73.3856 1.00002 73.2168 1C73.048 1.00007 72.7962 1.07849 72.4707 1.40918C72.1417 1.74358 71.7991 2.27874 71.4902 3.02051C70.8742 4.50023 70.4697 6.61375 70.4697 9C70.4697 11.3862 70.8742 13.4998 71.4902 14.9795C71.7717 15.6554 72.0821 16.1589 72.3838 16.4961V17.7734C70.7159 16.8624 69.4697 13.2816 69.4697 9C69.4697 4.02962 71.1473 0.000300168 73.2168 0Z" fill="#BB9C34"/>
<path d="M81.377 0C83.0085 0 84.3968 2.50444 84.9111 6H83.8994C83.7208 4.85343 83.4446 3.83979 83.1035 3.02051C82.7946 2.27864 82.4521 1.74354 82.123 1.40918C81.7974 1.07851 81.5457 1 81.377 1C81.2082 1.00022 80.9561 1.07877 80.6309 1.40918C80.3019 1.7436 79.9592 2.2789 79.6504 3.02051C79.0344 4.50022 78.6299 6.61384 78.6299 9C78.6299 11.3862 79.0344 13.4998 79.6504 14.9795C79.9592 15.7211 80.3019 16.2564 80.6309 16.5908C80.9561 16.9212 81.2082 16.9998 81.377 17L81.3779 16.999V17.999L81.377 18C79.3077 17.9991 77.6299 13.97 77.6299 9C77.6299 4.03001 79.3077 0.000920651 81.377 0Z" fill="#BB9C34"/>
<path d="M56.3936 0C58.0251 0 59.4124 2.50448 59.9268 6H58.916C58.7374 4.8534 58.4612 3.83981 58.1201 3.02051C57.8112 2.27857 57.4688 1.74356 57.1396 1.40918C56.814 1.07833 56.5623 1 56.3936 1C56.2248 1.00009 55.973 1.07849 55.6475 1.40918C55.3184 1.74358 54.9758 2.27874 54.667 3.02051C54.0509 4.50023 53.6465 6.61376 53.6465 9C53.6465 11.3862 54.0509 13.4998 54.667 14.9795C54.9484 15.6554 55.2589 16.1589 55.5605 16.4961V17.7734C53.8927 16.8623 52.6465 13.2815 52.6465 9C52.6465 4.02967 54.3241 0.000373621 56.3936 0Z" fill="#BB9C34"/>
<path d="M64.5547 0C66.1861 0.000375564 67.5736 2.50471 68.0879 6H67.0762C66.8976 4.8535 66.6223 3.83976 66.2813 3.02051C65.9724 2.27869 65.6298 1.74358 65.3008 1.40918C64.9753 1.07855 64.7235 1.00011 64.5547 1C64.3859 1.00007 64.1341 1.07861 63.8086 1.40918C63.4796 1.74356 63.137 2.27879 62.8281 3.02051C62.2121 4.50023 61.8076 6.61375 61.8076 9C61.8076 11.3862 62.2121 13.4998 62.8281 14.9795C63.137 15.7212 63.4796 16.2564 63.8086 16.5908C64.1341 16.9214 64.3859 16.9999 64.5547 17V18C62.4852 17.9997 60.8076 13.9704 60.8076 9C60.8076 4.02962 62.4852 0.000300168 64.5547 0Z" fill="#BB9C34"/>
<path d="M39.5703 0C41.2019 0 42.5891 2.50449 43.1035 6H42.0928C41.9142 4.85341 41.638 3.8398 41.2969 3.02051C40.988 2.27859 40.6455 1.74355 40.3164 1.40918C39.9907 1.07839 39.7391 1 39.5703 1C39.4015 1.00013 39.1497 1.07858 38.8242 1.40918C38.4952 1.74359 38.1526 2.27879 37.8438 3.02051C37.2277 4.50023 36.8232 6.61379 36.8232 9C36.8232 11.3862 37.2277 13.4998 37.8438 14.9795C38.1254 15.656 38.4363 16.1598 38.7383 16.4971V17.7744C37.0699 16.8642 35.8232 13.2824 35.8232 9C35.8232 4.02977 37.5009 0.000544151 39.5703 0Z" fill="#BB9C34"/>
<path d="M47.7314 0C49.3629 0.000244952 50.7503 2.50463 51.2646 6H50.2529C50.0743 4.85348 49.7991 3.83977 49.458 3.02051C49.1491 2.27865 48.8066 1.74357 48.4775 1.40918C48.152 1.07846 47.9002 1.00007 47.7314 1C47.5627 1.00007 47.3109 1.07856 46.9854 1.40918C46.6563 1.74357 46.3137 2.27877 46.0049 3.02051C45.3888 4.50023 44.9844 6.61375 44.9844 9C44.9844 11.3862 45.3888 13.4998 46.0049 14.9795C46.3137 15.7212 46.6563 16.2564 46.9854 16.5908C47.3109 16.9214 47.5627 16.9999 47.7314 17V18C45.662 17.9997 43.9844 13.9704 43.9844 9C43.9844 4.02962 45.662 0.000300168 47.7314 0Z" fill="#BB9C34"/>
<path d="M22.7471 0C24.3786 0 25.7669 2.50449 26.2813 6H25.2695C25.0909 4.85347 24.8147 3.83977 24.4736 3.02051C24.1647 2.27868 23.8222 1.74353 23.4932 1.40918C23.1676 1.0785 22.9158 1 22.7471 1C22.5783 1.00017 22.3263 1.07867 22.001 1.40918C21.672 1.74359 21.3293 2.27879 21.0205 3.02051C20.4044 4.5002 20 6.61381 20 9C20 11.3861 20.4045 13.4998 21.0205 14.9795C21.3022 15.6559 21.6131 16.1598 21.915 16.4971V17.7744C20.2468 16.864 19 13.2823 19 9C19 4.02994 20.6778 0.000717249 22.7471 0Z" fill="#BB9C34"/>
<path d="M30.9082 0C32.5397 0.000108565 33.927 2.50454 34.4414 6H33.4307C33.2521 4.85341 32.9759 3.83981 32.6348 3.02051C32.3259 2.2786 31.9834 1.74357 31.6543 1.40918C31.3287 1.07838 31.077 1.00003 30.9082 1C30.7394 1.00007 30.4876 1.0785 30.1621 1.40918C29.8331 1.74357 29.4905 2.27874 29.1816 3.02051C28.5656 4.50023 28.1611 6.61375 28.1611 9C28.1611 11.3862 28.5656 13.4998 29.1816 14.9795C29.4905 15.7213 29.8331 16.2564 30.1621 16.5908C30.4876 16.9215 30.7394 16.9999 30.9082 17V18C28.8387 17.9997 27.1611 13.9704 27.1611 9C27.1611 4.02962 28.8387 0.000300168 30.9082 0Z" fill="#BB9C34"/>
</svg>
